# xmcd
#
# Track frame offsets:
#	150
#	15860
#	29446
#	39777
#	54440
#	66960
#	78210
#	93005
#	104405
#	118942
#	129529
#	142553
#
# Disc length: 2101 seconds
#
# Revision: 0
# Processed by: cddbd v1.5.2PL0 Copyright (c) Steve Scherf et al.
# Submitted via: EasyCDDAExtractor 16.0.6.1
#
DISCID=8808330c
DTITLE=Τερζόπουλος Δημήτρης - Σαν τη γη την διψασμένη-LP, Δ. Τερζόπουλος
DYEAR=1978
DGENRE=Λαϊκή
TTITLE0=Τερζόπουλος Δημήτρης - Σαν τη γη την διψασμένη [Γ. Κόρος-Λάκης Τσώλης]
TTITLE1=Τερζόπουλος Δημήτρης - Θα γίνω πυροσβέστης [Γ. Κόρος-Λάκης Τσώλης]
TTITLE2=Τερζόπουλος Δημήτρης - Ποιος σε μάλωσε [Γ. Κόρος-Λάκης Τσώλης]
TTITLE3=Τερζόπουλος Δημήτρης - Ψάχνω να βρω βοτάνι [Γ. Κόρος-Λάκης Τσώλης]
TTITLE4=Τερζόπουλος Δημήτρης - Σαν χτυπάς το τακουνάκι [Γ. Κόρος-Λάκης Τσώλης]
TTITLE5=Τερζόπουλος Δημήτρης - Χθες μού δώρησες αγάπη [Γ. Κόρος-Λάκης Τσώλης]
TTITLE6=Τερζόπουλος Δημήτρης - Αγκαλιασμένους τους δυό κι αν μάς δουν [Γ. Κόρο
TTITLE6=ς-Λάκης Τσώλης]
TTITLE7=Τερζόπουλος Δημήτρης - Τι έπαθες μικρή μου [Γ. Κόρος-Λάκης Τσώλης]
TTITLE8=Τερζόπουλος Δημήτρης - Απάλλαξέ με απ' την αγάπη σου [Γ. Κόρος-Λάκης Τ
TTITLE8=σώλης]
TTITLE9=Τερζόπουλος Δημήτρης - Σκαλοπάτι [Γ. Κόρος-Λάκης Τσώλης]
TTITLE10=Άνευ ερμηνευτού - Το τσιφτετέλι της φωτιάς [οργ., Γ. Κόρος]
TTITLE11=Τερζόπουλος Δημήτρης - Στον τσιγγανομαχαλά [Γ. Κόρος-Λάκης Τσώλης]
EXTD=
EXTT0=
EXTT1=
EXTT2=
EXTT3=
EXTT4=
EXTT5=
EXTT6=
EXTT7=
EXTT8=
EXTT9=
EXTT10=
EXTT11=
PLAYORDER=
